<svg width="20" height="20" viewBox="0 0 20 20" fill="none" xmlns="http://www.w3.org/2000/svg">
<path fill-rule="evenodd" clip-rule="evenodd" d="M12.9168 0.833328H3.75016C2.8335 0.833328 2.0835 1.58333 2.0835 2.49999V13.3333C2.0835 13.7917 2.4585 14.1667 2.91683 14.1667C3.37516 14.1667 3.75016 13.7917 3.75016 13.3333V3.33333C3.75016 2.87499 4.12516 2.49999 4.5835 2.49999H12.9168C13.3752 2.49999 13.7502 2.12499 13.7502 1.66666C13.7502 1.20833 13.3752 0.833328 12.9168 0.833328ZM16.2502 4.16666H7.0835C6.16683 4.16666 5.41683 4.91666 5.41683 5.83333V17.5C5.41683 18.4167 6.16683 19.1667 7.0835 19.1667H16.2502C17.1668 19.1667 17.9168 18.4167 17.9168 17.5V5.83333C17.9168 4.91666 17.1668 4.16666 16.2502 4.16666ZM7.91683 17.5H15.4168C15.8752 17.5 16.2502 17.125 16.2502 16.6667V6.66666C16.2502 6.20833 15.8752 5.83333 15.4168 5.83333H7.91683C7.4585 5.83333 7.0835 6.20833 7.0835 6.66666V16.6667C7.0835 17.125 7.4585 17.5 7.91683 17.5Z" fill="black"/>
</svg>
